<svg width="18" height="22" viewBox="0 0 24 24" fill="none" xmlns="http://www.w3.org/2000/svg">
<g id="action_logout">
<path id="Vector" d="M13.8516 14.7422C14.1328 14.7422 14.3438 14.9531 14.3438 15.2344V20.5078C14.3438 20.7656 14.1328 21 13.8516 21H3.49219C3.23438 21 3 20.7656 3 20.5078V3.49219C3 3.23438 3.23438 3 3.49219 3H13.8516C14.1328 3 14.3438 3.23438 14.3438 3.49219V8.76562C14.3438 9.04688 14.1328 9.25781 13.8516 9.25781C13.5703 9.25781 13.3594 9.04688 13.3594 8.76562V4.00781H4.00781V19.9922H13.3594V15.2344C13.3594 14.9531 13.5703 14.7422 13.8516 14.7422ZM21 12C21 12.1406 20.9531 12.2578 20.8594 12.3516L16.8047 16.4062C16.7109 16.5 16.5703 16.5469 16.4531 16.5469C16.3125 16.5469 16.1953 16.5 16.1016 16.4062C15.8906 16.2188 15.8906 15.8906 16.1016 15.7031L19.3125 12.4922H8.36719C8.08594 12.4922 7.85156 12.2812 7.85156 12C7.85156 11.7188 8.08594 11.5078 8.36719 11.5078H19.3125L16.1016 8.29688C15.8906 8.10938 15.8906 7.78125 16.1016 7.59375C16.2891 7.40625 16.6172 7.40625 16.8047 7.59375L20.8594 11.6484C20.9531 11.7422 21 11.8594 21 12Z" fill="#333333"/>
</g>
</svg>
