<svg width="180" height="50" viewBox="0 0 180 50" fill="none" xmlns="http://www.w3.org/2000/svg">
<g clip-path="url(#clip0_3650_2133)">
<path d="M14.1374 29.3616H8.85383V20.0665C8.85383 19.709 8.85383 19.2085 8.28263 19.2085C7.71143 19.2085 7.71143 19.709 7.71143 20.0665V29.4331C7.71143 30.2196 7.78283 30.2911 8.63963 30.2911H14.066C14.423 30.2911 14.9229 30.2911 14.9229 29.8621C14.9943 29.3616 14.4944 29.3616 14.1374 29.3616Z" fill="#3DCD58"/>
<path d="M16.4939 22.2114C15.9941 22.2114 15.9941 22.6404 15.9941 22.9979V29.719C15.9941 30.0765 15.9941 30.5055 16.4939 30.5055C16.9937 30.5055 16.9937 30.0765 16.9937 29.719V22.9979C16.9937 22.7119 16.9937 22.2114 16.4939 22.2114Z" fill="#3DCD58"/>
<path d="M16.4934 19.4945C16.1364 19.4945 15.8508 19.7805 15.8508 20.0665C15.8508 20.424 16.1364 20.6385 16.4934 20.6385C16.8504 20.6385 17.136 20.3525 17.136 20.0665C17.136 19.7805 16.8504 19.4945 16.4934 19.4945Z" fill="#3DCD58"/>
<path d="M21.4919 22.4261H20.4209V21.7111C20.4209 20.7101 20.4923 20.0666 21.7061 20.0666C21.7775 20.0666 21.9203 20.0666 22.0631 20.0666C22.2059 20.0666 22.3487 20.0666 22.4201 20.0666C22.7057 20.0666 22.8485 19.8521 22.8485 19.6376C22.8485 19.6376 22.8485 19.4231 22.6343 19.2801C22.4201 19.2086 21.9203 19.0656 21.4205 19.0656C21.0635 19.0656 20.7065 19.1371 20.4209 19.2801C20.0639 19.4231 19.8497 19.6376 19.7069 19.9236C19.6355 20.1381 19.4927 20.4241 19.4927 21.3536V22.2116H18.5645C18.4217 22.2116 17.9219 22.2116 17.9219 22.5691C17.9219 22.9266 18.3503 22.9266 18.5645 22.9266H19.4213V29.5047C19.4213 29.8622 19.4213 30.2912 19.9211 30.2912C20.4209 30.2912 20.4209 29.8622 20.4209 29.5047V23.0696H21.4919C21.9203 23.0696 22.1345 22.9266 22.1345 22.7121C22.1345 22.4261 21.7061 22.4261 21.4919 22.4261Z" fill="#3DCD58"/>
<path d="M29.6314 25.7866C29.6314 25.7151 29.6314 24.857 29.1316 23.9275C28.846 23.427 28.489 22.998 28.0606 22.712C27.9892 22.712 27.9178 22.6405 27.9178 22.6405C27.8464 22.6405 27.8464 22.569 27.775 22.569C27.6322 22.4975 27.5608 22.4975 27.418 22.426C27.3466 22.426 27.3466 22.426 27.2752 22.3545C27.1324 22.283 26.9896 22.283 26.8468 22.2115H26.7754C26.6326 22.2115 26.4184 22.14 26.2756 22.14C26.2756 22.14 26.2756 22.14 26.2042 22.14C26.1328 22.14 25.99 22.14 25.9186 22.14C24.7048 22.14 23.7052 22.4975 23.0626 23.284C22.42 23.999 22.063 25.0716 22.063 26.2871C22.063 27.5026 22.42 28.5036 22.9912 29.2186C23.3482 29.5761 23.7052 29.8621 24.205 30.0766C24.7048 30.2911 25.276 30.3626 25.9186 30.3626C27.418 30.3626 28.2748 29.7906 28.7032 29.2901C29.203 28.7181 29.4172 28.1461 29.4172 28.0031C29.4172 27.7886 29.203 27.5741 28.9174 27.5741C28.7032 27.5741 28.489 27.7171 28.4176 27.9316C28.132 28.6466 27.7036 29.0756 27.061 29.3616C26.704 29.5046 26.347 29.5761 25.9186 29.5761C24.9904 29.5761 24.2764 29.2901 23.848 28.6466C23.4196 28.0746 23.134 27.2881 23.134 26.3586H28.6318C29.203 26.4301 29.6314 26.4301 29.6314 25.7866ZM23.2054 25.6436C23.3482 24.6425 24.0622 22.9265 25.9186 22.9265C28.2748 22.9265 28.489 24.9285 28.5604 25.6436H23.2054Z" fill="#3DCD58"/>
<path d="M34.7724 19.2085C34.2012 19.2085 34.2012 19.709 34.2012 20.0665V29.5761C34.2012 29.9336 34.2012 30.4341 34.7724 30.4341C35.3436 30.4341 35.3436 29.9336 35.3436 29.5761V20.0665C35.3436 19.709 35.3436 19.2085 34.7724 19.2085Z" fill="#3DCD58"/>
<path d="M53.193 25.0001C53.55 25.0001 53.7642 24.7141 53.7642 24.4281V17.85H52.6218V24.4281C52.6218 24.6426 52.836 25.0001 53.193 25.0001Z" fill="#3DCD58"/>
<path d="M42.4833 26.3585C42.4119 26.287 42.3405 26.287 42.2691 26.287H42.1977C41.6265 26.0725 40.9839 25.858 40.3413 25.7865C39.6987 25.6435 39.1274 25.5005 38.699 25.286C38.1992 25.0715 37.985 24.714 37.985 24.285C37.985 23.4269 38.9846 22.9979 39.9843 22.9979C41.0553 22.9979 41.8407 23.4269 42.0549 24.0705C42.1977 24.4995 42.3405 24.571 42.5547 24.571C42.9831 24.571 43.0545 24.142 43.0545 24.142C43.0545 24.0704 42.9831 23.5699 42.5547 23.1409C42.3405 22.8549 41.9835 22.6404 41.6265 22.4974C41.1267 22.2829 40.6269 22.2114 39.9129 22.2114C38.7704 22.2114 37.9136 22.4974 37.4138 23.1409C36.914 23.7129 36.914 24.285 36.914 24.428C36.914 25 37.1996 25.572 37.6994 25.858C38.1992 26.2155 38.699 26.287 39.7701 26.573C40.0557 26.6445 40.3413 26.716 40.6983 26.7875H40.7697C41.3409 26.9305 42.4119 27.2165 42.4119 28.146C42.4119 28.861 41.6979 29.6475 40.1271 29.6475C38.9846 29.6475 38.1992 29.2185 37.7708 28.3605C37.628 28.146 37.5566 27.86 37.271 27.86C37.1282 27.86 37.0568 27.9315 36.914 28.003C36.8426 28.0745 36.7712 28.2175 36.7712 28.289C36.7712 28.718 37.1282 29.3615 37.628 29.7905C37.9136 30.005 38.1278 30.148 38.4848 30.2195C38.9132 30.3625 39.413 30.434 40.0557 30.434C41.3409 30.434 42.3405 30.148 42.9117 29.5045C43.4115 28.9325 43.4829 28.289 43.4829 28.0745C43.5543 27.288 43.1973 26.716 42.4833 26.3585Z" fill="#3DCD58"/>
<path d="M66.2598 23.0694C65.9028 22.7119 65.1888 22.2114 63.975 22.2114C62.4042 22.2114 61.7616 22.9979 61.2618 23.4984V22.9264C61.2618 22.7119 61.2618 22.4259 61.119 22.2829H61.0476C60.9762 22.2114 60.9048 22.2114 60.762 22.2114C60.2622 22.2114 60.2622 22.6404 60.2622 22.9979V29.719C60.2622 30.0765 60.2622 30.5055 60.762 30.5055C60.9048 30.5055 60.9762 30.5055 61.0476 30.434H61.119C61.2618 30.291 61.2618 30.005 61.2618 29.7905V26.9305C61.2618 25.6435 61.3332 25 61.5474 24.4995C61.7616 24.0704 62.1186 23.7129 62.547 23.4984C62.9754 23.2839 63.4752 23.1409 63.9036 23.1409C64.6176 23.1409 65.1888 23.4269 65.5458 23.8559C65.8314 24.285 65.9028 24.857 65.9028 25.429V29.7905C65.9028 30.005 65.9028 30.291 66.0456 30.434H66.117C66.1884 30.5055 66.2598 30.5055 66.4026 30.5055C66.9024 30.5055 66.9024 30.0765 66.9024 29.719V25.2145C66.9024 24.714 66.9024 23.7129 66.2598 23.0694Z" fill="#3DCD58"/>
<path d="M54.7642 19.0656V20.2096C56.6207 20.8531 57.9773 22.6406 57.9773 24.7141C57.9773 27.3597 55.8353 29.5047 53.1934 29.5047C50.5516 29.5047 48.4096 27.3597 48.4096 24.7141C48.4096 22.6406 49.6948 20.9246 51.4798 20.2096V19.0656C49.0522 19.7806 47.3386 22.0686 47.3386 24.7141C47.3386 27.9317 49.9804 30.5772 53.122 30.5772C56.2637 30.5772 58.9055 27.9317 58.9055 24.7141C59.0483 21.9971 57.2633 19.7806 54.7642 19.0656Z" fill="#3DCD58"/>
<path d="M97.1044 20.2808C95.1766 19.4228 94.0342 19.0653 92.8918 19.0653C91.6779 19.0653 90.8925 19.4943 90.8925 20.1378C90.8925 22.1398 97.747 21.5678 97.747 26.2869C97.747 28.8609 95.605 30.3624 92.6061 30.3624C90.2499 30.3624 89.1075 29.7189 87.7509 29.0754V26.1439C89.6787 27.4309 90.8211 27.8599 92.3205 27.8599C93.6058 27.8599 94.3198 27.4309 94.3198 26.6444C94.3198 24.4278 87.4653 25.2144 87.4653 20.4238C87.4653 18.0643 89.4645 16.5627 92.6061 16.5627C94.1055 16.5627 95.4622 16.8487 97.1758 17.6353V20.2808" fill="#009530"/>
<path d="M106.672 29.862C105.53 30.291 104.601 30.5055 103.602 30.5055C100.389 30.5055 98.3896 28.6464 98.3896 25.7864C98.3896 22.9979 100.532 20.9958 103.53 20.9958C104.459 20.9958 105.601 21.2104 106.601 21.5679V23.7129C105.887 23.2839 104.958 23.0694 104.316 23.0694C102.602 23.0694 101.531 24.0704 101.531 25.7149C101.531 27.3594 102.602 28.4319 104.244 28.4319C104.958 28.4319 105.53 28.2889 106.815 27.7884V29.862" fill="#009530"/>
<path d="M133.162 20.9958C130.377 20.9958 128.378 22.9979 128.378 25.7864C128.378 28.5749 130.448 30.5055 133.59 30.5055C134.304 30.5055 136.018 30.5055 137.588 29.29V27.5024C136.232 28.4319 135.375 28.7894 134.233 28.7894C132.447 28.7894 131.376 27.8599 131.234 26.2869H137.731C138.017 22.8549 135.803 20.9958 133.162 20.9958ZM131.448 24.7139C131.591 23.4269 132.305 22.7119 133.376 22.7119C134.447 22.7119 135.232 23.4984 135.304 24.7139H131.448Z" fill="#009530"/>
<path d="M141.801 21.1389H138.945V30.291H141.801V21.1389Z" fill="#009530"/>
<path d="M149.726 16.7772V21.5678C148.941 21.2103 148.227 20.9958 147.37 20.9958C144.8 20.9958 143.015 22.9263 143.015 25.7148C143.015 28.4319 144.8 30.4339 147.227 30.4339C148.156 30.4339 148.941 30.1479 149.726 29.5044V30.2194H152.583V16.7772H149.726ZM149.726 27.7884C149.155 28.3604 148.656 28.5749 148.013 28.5749C146.656 28.5749 145.799 27.4309 145.799 25.7863C145.799 23.9273 146.656 22.9263 148.084 22.9263C148.584 22.9263 149.298 23.1408 149.655 23.4268V27.7884H149.726Z" fill="#009530"/>
<path d="M158.509 20.9958C155.724 20.9958 153.725 22.9979 153.725 25.7864C153.725 28.5749 155.795 30.5055 158.937 30.5055C159.651 30.5055 161.365 30.5055 163.007 29.29V27.5024C161.65 28.4319 160.793 28.7894 159.651 28.7894C157.866 28.7894 156.795 27.8599 156.652 26.2869H163.15C163.292 22.8549 161.15 20.9958 158.509 20.9958ZM156.724 24.7139C156.866 23.4269 157.58 22.7119 158.651 22.7119C159.722 22.7119 160.508 23.4984 160.651 24.7139H156.724Z" fill="#009530"/>
<path d="M167.433 23.7844C168.29 21.8539 169.29 20.9958 170.361 20.9958C170.932 20.9958 171.432 21.2104 172.217 21.8539L171.432 24.3564C170.718 23.8559 170.218 23.7129 169.718 23.7129C168.647 23.7129 168.004 24.7139 167.362 26.3584V30.291H164.506V21.1389H167.362V23.7844" fill="#009530"/>
<path d="M141.944 17.2778C142.229 17.9928 141.729 18.9939 140.873 19.4944C140.016 19.9949 139.088 19.8519 138.873 19.1369C138.588 18.4219 139.088 17.4208 139.944 16.9203C140.73 16.4198 141.658 16.5628 141.944 17.2778Z" fill="#009530"/>
<path d="M116.882 24.4279C116.882 21.9254 115.24 20.9244 113.598 20.9244C112.455 20.9244 111.527 21.4249 110.742 22.4259H110.67V16.7058H107.814V30.2195H110.67V24.4279C111.313 23.4269 111.884 23.0694 112.598 23.0694C113.455 23.0694 114.098 23.7129 114.098 25.0714V28.289C115.026 27.7884 116.025 27.5024 116.954 27.3594V24.4279" fill="#009530"/>
<path d="M124.022 20.9958C122.88 20.9958 121.952 21.4249 121.095 22.4974V21.2104H118.239V27.3594C119.239 27.4309 120.452 27.9314 121.095 28.6464V24.3564C121.809 23.2124 122.38 22.8549 123.094 22.8549C123.88 22.8549 124.522 23.3554 124.522 24.7139V30.2195H127.378V24.4994C127.307 21.7824 125.379 20.9958 124.022 20.9958Z" fill="#009530"/>
<path d="M128.877 32.865H125.593V35.2246H128.735V36.2256H125.593V38.7281H128.949V39.7291H124.451V31.864H128.877V32.865Z" fill="#009530"/>
<path d="M132.59 31.864H131.591V39.7291H132.59V31.864Z" fill="#009530"/>
<path d="M136.16 37.298H139.73C139.73 35.3675 138.874 34.438 137.517 34.438C136.089 34.438 135.161 35.5105 135.161 37.0835C135.161 38.5135 136.018 39.8721 137.66 39.8721C138.517 39.8721 139.088 39.6576 139.73 39.2285V38.2275C139.159 38.6565 138.517 38.871 137.945 38.871C136.946 38.871 136.303 38.299 136.16 37.298ZM137.588 35.296C138.302 35.296 138.731 35.7965 138.802 36.583H136.232C136.303 35.7965 136.803 35.296 137.588 35.296Z" fill="#009530"/>
<path d="M146.37 35.868C145.799 35.439 145.371 35.3675 144.942 35.3675C144.014 35.3675 143.371 36.0825 143.371 37.155C143.371 38.2275 144.085 38.871 145.085 38.871C145.513 38.871 145.942 38.728 146.442 38.5135V39.5146C146.085 39.6576 145.442 39.8006 144.942 39.8006C143.443 39.8006 142.372 38.728 142.372 37.2265C142.372 35.5105 143.371 34.438 144.871 34.438C145.442 34.438 145.87 34.581 146.37 34.7955V35.868Z" fill="#009530"/>
<path d="M151.012 34.5094H152.654V35.4389H151.012V38.0844C151.012 38.728 151.44 38.871 151.726 38.871C152.083 38.871 152.44 38.728 152.868 38.5135V39.443C152.511 39.6575 151.94 39.8005 151.654 39.8005C150.583 39.8005 150.012 39.0855 150.012 38.1559V35.4389H149.084V35.2959L151.012 33.4369V34.5094Z" fill="#009530"/>
<path d="M156.509 34.5095V35.725C157.009 34.7955 157.509 34.438 158.009 34.438C158.437 34.438 158.794 34.6525 159.223 35.01L158.651 35.9395C158.366 35.6535 157.937 35.439 157.723 35.439C157.009 35.439 156.509 36.154 156.509 37.012V39.7291H155.51V34.5095H156.509Z" fill="#009530"/>
<path d="M169.575 35.868C169.004 35.439 168.576 35.3675 168.147 35.3675C167.219 35.3675 166.577 36.0825 166.577 37.155C166.577 38.2275 167.291 38.871 168.29 38.871C168.719 38.871 169.147 38.728 169.647 38.5135V39.5146C169.29 39.6576 168.647 39.8006 168.147 39.8006C166.648 39.8006 165.577 38.728 165.577 37.2265C165.577 35.5105 166.577 34.438 168.076 34.438C168.647 34.438 169.076 34.581 169.575 34.7955V35.868Z" fill="#009530"/>
<path d="M162.864 34.5094H161.864V39.6575H162.864V34.5094Z" fill="#009530"/>
<path d="M162.936 32.6505C163.007 32.9365 162.864 33.2225 162.579 33.437C162.293 33.6515 161.936 33.58 161.865 33.294C161.793 33.008 161.936 32.722 162.222 32.5075C162.507 32.3645 162.864 32.436 162.936 32.6505Z" fill="#009530"/>
<path d="M118.31 35.2244L118.596 34.0804H121.38C121.737 32.4358 121.452 30.9343 120.452 29.9333C118.453 27.9313 114.312 28.6463 111.242 31.5778C110.742 32.0068 110.385 32.5073 109.956 33.0794H111.67L111.313 34.2234H109.314C109.1 34.5809 108.957 34.9384 108.814 35.2959H111.17L110.813 36.4399H108.457C108.029 38.1559 108.314 39.7289 109.314 40.8014C111.242 42.8035 115.383 42.0885 118.524 39.0854C119.096 38.5849 119.524 38.0129 119.881 37.4409H117.739L118.096 36.2969H120.595C120.809 35.9394 120.952 35.5819 121.095 35.2244H118.31ZM117.668 33.0794C117.525 33.0794 117.382 33.0794 117.311 33.2224C117.311 33.2224 117.239 33.2939 117.239 33.3654L116.311 36.8689C116.097 38.0844 114.597 39.2999 112.67 39.2999H111.599H109.956L110.456 37.5124H112.17C112.313 37.5124 112.455 37.4409 112.598 37.2979C112.67 37.2264 112.67 37.1549 112.67 37.0834L113.384 34.0804C113.598 32.8649 114.883 31.5063 116.811 31.5063H119.524L119.167 33.1509H117.668V33.0794Z" fill="#009530"/>
<path d="M77.4691 7.91125H76.8979V42.2317H77.4691V7.91125Z" fill="#9FA0A4"/>
</g>
<defs>
<clipPath id="clip0_3650_2133">
<rect width="180" height="49.6216" fill="white" transform="translate(0 0.189209)"/>
</clipPath>
</defs>
</svg>
